<svg version="1.1" id="Layer_1" xmlns="http://www.w3.org/2000/svg" xmlns:xlink="http://www.w3.org/1999/xlink" x="0px" y="0px"
	 width="100%" viewBox="0 0 496 496" enable-background="new 0 0 496 496" xml:space="preserve">
<path fill="#000000" opacity="1.000000" stroke="none" 
	d="
M211.999969,432.225891 
	C161.001007,432.226990 110.502052,432.227966 60.003098,432.227661 
	C58.503185,432.227661 56.999027,432.285217 55.504101,432.195312 
	C48.839550,431.794434 46.247318,427.517944 49.459824,421.690613 
	C55.733223,410.310944 62.220360,399.048523 68.668007,387.765564 
	C120.082695,297.793427 171.510773,207.828903 222.929428,117.859009 
	C229.872452,105.710457 236.782471,93.543053 243.715820,81.388954 
	C245.310684,78.593147 247.000916,75.824883 250.727585,75.745872 
	C254.509079,75.665703 256.197784,78.437325 257.798737,81.240211 
	C281.925232,123.480080 306.039368,165.727020 330.177490,207.960251 
	C363.078735,265.525879 396.002319,323.078766 428.906250,380.642853 
	C436.346313,393.658936 443.758423,406.691071 451.157562,419.730469 
	C455.673431,427.688660 453.125000,432.173126 443.995483,432.180389 
	C396.329803,432.218353 348.664124,432.215485 300.998444,432.222870 
	C271.498962,432.227417 241.999466,432.224915 211.999969,432.225891 
M324.104218,207.321457 
	C299.936920,165.030807 275.769623,122.740158 250.816803,79.074898 
	C185.539841,193.363876 121.061043,306.255402 56.582253,419.146912 
	C118.715927,366.908203 180.170837,314.210815 241.621521,261.508514 
	C247.915573,256.110504 253.660049,256.036285 259.914368,261.403503 
	C313.142365,307.081696 366.357697,352.774658 419.587921,398.450226 
	C427.915009,405.595520 436.298157,412.675476 444.655365,419.785614 
	C444.805267,419.619446 444.955139,419.453247 445.105042,419.287079 
	C404.904266,348.837097 364.703491,278.387146 324.104218,207.321457 
M112.391357,378.914886 
	C94.287819,394.474274 76.184280,410.033661 57.343636,426.226562 
	C186.701431,426.226562 314.816010,426.226562 443.137390,426.226562 
	C442.364807,423.790588 440.588257,422.975647 439.236389,421.812317 
	C424.208282,408.880310 409.142029,395.992645 394.093842,383.083923 
	C348.696259,344.140656 303.310547,305.183502 257.896881,266.258972 
	C251.594452,260.857117 249.774109,260.964539 243.355301,266.476562 
	C199.883926,303.806671 156.409195,341.132874 112.391357,378.914886 
z"/>
</svg>