<?xml version="1.0" standalone="no"?>
<!DOCTYPE svg PUBLIC "-//W3C//DTD SVG 20010904//EN"
 "http://www.w3.org/TR/2001/REC-SVG-20010904/DTD/svg10.dtd">
<svg version="1.0" xmlns="http://www.w3.org/2000/svg"
 width="500.000000pt" height="500.000000pt" viewBox="0 0 500.000000 500.000000"
 preserveAspectRatio="xMidYMid meet">

<g transform="translate(0.000000,500.000000) scale(0.100000,-0.100000)"
fill="#000000" stroke="none">
<path d="M2462 4233 c-16 -15 -1918 -3335 -1976 -3451 -20 -38 -9 -68 30 -82
15 -6 779 -9 2000 -7 1943 2 1976 2 1990 21 8 11 14 28 14 38 0 21 -1966 3467
-1988 3486 -22 17 -46 15 -70 -5z m1019 -1725 c535 -937 974 -1707 977 -1712
10 -18 -25 10 -267 218 -610 524 -1589 1364 -1619 1389 -39 32 -94 36 -132 10
-14 -10 -214 -179 -445 -377 -231 -198 -643 -551 -915 -785 -272 -233 -508
-436 -524 -450 l-29 -26 30 55 c85 152 1917 3357 1925 3368 6 6 14 12 19 12 4
0 445 -766 980 -1702z m5 -940 l959 -823 -972 -3 c-534 -1 -1410 -1 -1947 0
l-975 3 886 760 c1122 963 1028 885 1062 885 23 0 211 -157 987 -822z"/>
</g>
</svg>
